<?xml version="1.0" encoding="utf-8"?>
<!-- Generator: Adobe Illustrator 24.3.0, SVG Export Plug-In . SVG Version: 6.00 Build 0)  -->
<svg version="1.1" id="Layer_1" xmlns="http://www.w3.org/2000/svg" xmlns:xlink="http://www.w3.org/1999/xlink" x="0px" y="0px"
	 viewBox="0 0 202.3 72.4" style="enable-background:new 0 0 202.3 72.4;" xml:space="preserve">
<style type="text/css">
	.st0{fill:#2F2F2F;}
	.st1{fill:#B21A81;}
	.st2{fill:#FFFFFF;}
	.st3{fill:#3C3E3D;}
	.st4{fill:#31BFC3;}
	.st5{opacity:0.25;}
	.st6{fill:#808080;}
	.st7{fill:none;stroke:#808080;stroke-width:0.3983;stroke-miterlimit:10;}
	.st8{fill:#93B48E;}
	.st9{opacity:0.88;fill:none;stroke:#93B48E;stroke-width:0.914;stroke-miterlimit:10;}
	.st10{fill:#E9A036;}
	.st11{fill:#A95A21;}
	.st12{fill:none;stroke:#DE001C;stroke-width:0.4874;stroke-miterlimit:10;}
	.st13{fill:#1C816E;}
	.st14{fill:#5BB9A4;}
	.st15{fill:#122D24;}
	.st16{fill:#175929;}
	.st17{fill:#80BC27;}
	.st18{fill:#7FBA28;}
	.st19{fill:#7FB829;}
	.st20{fill:#80BC28;}
	.st21{fill:#80BC2A;}
	.st22{fill:#3C7651;}
	.st23{fill:#3B7550;}
	.st24{fill:#80AA94;}
	.st25{fill:#FAFCFC;}
	.st26{fill:#25524A;}
	.st27{fill:#A9A01F;}
	.st28{fill:#23995B;}
	.st29{fill:#1D4479;}
	.st30{fill:none;stroke:#262728;stroke-width:1.0774;stroke-miterlimit:10;}
	.st31{fill:#28378C;}
	.st32{fill:#40A6E2;}
	.st33{fill:#FCCE1C;}
	.st34{fill:none;stroke:#737373;stroke-width:1.11;stroke-miterlimit:10;}
	.st35{fill:#00B9D7;}
	.st36{fill:none;stroke:#FFFFFF;stroke-width:1.5619;stroke-miterlimit:10;}
	.st37{fill:#2B3A3B;}
	.st38{fill:none;stroke:#6E1215;stroke-width:0.6419;stroke-miterlimit:10;}
	.st39{fill:none;stroke:#6E1215;stroke-width:0.4466;stroke-miterlimit:10;}
	.st40{opacity:0.88;fill:none;stroke:#93B48E;stroke-width:0.5596;stroke-miterlimit:10;}
	.st41{fill:none;stroke:#FFFFFF;stroke-width:0.9404;stroke-miterlimit:10;}
	.st42{fill:none;stroke:#737373;stroke-width:0.5012;stroke-miterlimit:10;}
	.st43{fill:none;stroke:#FFFFFF;stroke-width:1.3888;stroke-miterlimit:10;}
	.st44{fill:none;stroke:#737373;stroke-width:0.7403;stroke-miterlimit:10;}
	.st45{fill:none;stroke:#23995B;stroke-width:0.6635;stroke-miterlimit:10;}
	.st46{fill:none;stroke:#23995B;stroke-width:0.3962;stroke-miterlimit:10;}
	.st47{fill:none;stroke:#28378C;stroke-width:2;stroke-miterlimit:10;}
	.st48{fill:none;stroke:#28378C;stroke-width:1.0909;stroke-miterlimit:10;}
	.st49{fill:#96AFCE;}
	.st50{fill:#3B3888;}
	.st51{fill:none;stroke:#DE001C;stroke-width:0.451;stroke-miterlimit:10;}
	.st52{fill:none;stroke:#DE001C;stroke-width:0.1983;stroke-miterlimit:10;}
	.st53{fill:none;stroke:#DE001C;stroke-width:0.3536;stroke-miterlimit:10;}
	.st54{fill:none;stroke:#808080;stroke-width:0.3418;stroke-miterlimit:10;}
	.st55{fill:none;stroke:#808080;stroke-width:0.2279;stroke-miterlimit:10;}
	.st56{fill:#37B2B5;}
	.st57{fill:#000100;}
	.st58{fill:none;stroke:#C85119;stroke-width:0.8469;stroke-miterlimit:10;}
	.st59{fill:#C85119;}
	.st60{fill:#1A1718;}
	.st61{fill:none;stroke:#96AFCE;stroke-width:0.5236;stroke-miterlimit:10;}
	.st62{fill:#F2F3F1;}
	.st63{fill:#F2F3F2;}
	.st64{fill:#F1F6F2;}
	.st65{fill:#EFF2F0;}
	.st66{fill:#DFE8E2;}
	.st67{fill:#EDF0EC;}
	.st68{fill:none;stroke:#808080;stroke-width:0.736;stroke-miterlimit:10;}
	.st69{fill:none;stroke:#25524A;stroke-width:1.193;stroke-miterlimit:10;}
	.st70{fill:#3CA835;}
	.st71{fill:#020201;}
	.st72{fill:#971860;}
	.st73{fill:#37B2B5;stroke:#37B2B5;stroke-width:0.6822;stroke-miterlimit:10;}
	.st74{fill:#737373;}
	.st75{fill:#0B4485;}
	.st76{fill:none;stroke:#262728;stroke-width:1.1895;stroke-miterlimit:10;}
	.st77{fill:#6E1215;}
	.st78{opacity:0.88;}
	.st79{fill:#DE001C;}
	.st80{fill:#DF001B;}
	.st81{fill:#020201;stroke:#FFFFFF;stroke-width:0.5409;stroke-miterlimit:10;}
	.st82{fill:#DF001B;stroke:#FFFFFF;stroke-width:0.5409;stroke-miterlimit:10;}
	.st83{fill:#FFFFFF;stroke:#FFFFFF;stroke-width:2;stroke-miterlimit:10;}
	.st84{fill:#23985B;}
	.st85{fill:#262728;}
	.st86{fill:none;stroke:#FFFFFF;stroke-width:1.6144;stroke-miterlimit:10;}
	.st87{fill:none;stroke:#737373;stroke-width:0.7652;stroke-miterlimit:10;}
	.st88{fill:none;stroke:#808080;stroke-width:0.3675;stroke-miterlimit:10;}
	.st89{fill:none;stroke:#40A6E2;stroke-width:1.408;stroke-miterlimit:10;}
	.st90{fill:#DF001B;stroke:#FFFFFF;stroke-width:0.4562;stroke-miterlimit:10;}
	.st91{fill:#1A1818;}
	.st92{fill:#35754F;}
	.st93{fill:#22568A;}
	.st94{fill:#35479C;}
	.st95{fill:#FFD838;}
	.st96{fill:#FC4C62;}
	.st97{fill:#642C8F;}
	.st98{fill:#929392;}
	.st99{fill:#18A89D;}
	.st100{fill:#314957;}
	.st101{fill:none;stroke:#642C8F;stroke-width:0.75;stroke-miterlimit:10;}
	.st102{fill:none;stroke:#18A89D;stroke-width:0.75;stroke-miterlimit:10;}
	.st103{fill:none;stroke:#314957;stroke-width:0.75;stroke-miterlimit:10;}
	.st104{fill:#FC6D11;}
	.st105{fill:#2B3B5C;}
	.st106{fill:none;stroke:#C85119;stroke-width:0.75;stroke-miterlimit:10;}
	.st107{fill:#7E4524;}
	.st108{fill:#008DC9;}
	.st109{fill:#123A31;}
	.st110{fill:#5F9955;}
	.st111{fill:none;stroke:#28378C;stroke-miterlimit:10;}
	.st112{fill:#3D5A80;}
	.st113{fill:#D69500;}
	.st114{fill:none;stroke:#25524A;stroke-miterlimit:10;}
	.st115{fill:none;stroke:#1A1818;stroke-miterlimit:10;}
	.st116{fill:none;stroke:#808080;stroke-miterlimit:10;}
	.st117{fill:#178DD7;}
	.st118{fill:#4E7E95;}
	.st119{fill:#C90526;}
</style>
<g>
	<g>
		<g>
			<g>
				<path class="st13" d="M13.1,21.8c-3.9-2.3-8.9-1-11.2,2.9c-2.3,3.9-1,8.9,2.9,11.2l12.8,7.5l8.3-14.1L13.1,21.8z M16.9,41.1
					L5.6,34.4c-3.1-1.8-4.1-5.8-2.3-8.9c1.8-3.1,5.8-4.1,8.9-2.3l11.3,6.6l-0.8,1.3L16.9,41.1z"/>
			</g>
		</g>
		<g>
			<path class="st13" d="M25.8,65.7C25.8,65.7,25.8,65.7,25.8,65.7c1.8,0,3.5-0.6,4.8-1.6c0.1-0.1,0.2-0.2,0.4-0.3
				c1.9-1.5,3-3.8,3-6.4l0-14.1l-16.4,0l0,14.1c0,1.2,0.3,2.3,0.7,3.3C19.6,63.7,22.4,65.7,25.8,65.7C25.7,65.7,25.7,65.7,25.8,65.7
				z"/>
		</g>
		<g>
			<g>
				<path class="st14" d="M25.5,42.4c0,0,0-0.1-0.1-0.2c0-0.1-0.1-0.2-0.2-0.4c-0.1-0.4-0.3-0.9-0.5-1.6c-0.3-1.3-0.5-3.4,0.2-5.7
					c0.4-1.1,1-2.3,1.9-3.3c0.9-1,2-1.9,3.3-2.6c1.3-0.7,2.7-1.3,4.2-1.4c1.5-0.2,3,0.1,4.5,0.3c1.4,0.2,2.9,0.3,4.3,0.1
					c1.4-0.2,2.7-0.8,3.8-1.5c1.2-0.8,2.1-1.6,2.9-2.6c0.8-1,1.4-2,1.8-3c0.8-2,1-3.9,1-5.2c0-0.6,0-1.1-0.1-1.5c0-0.3,0-0.5,0-0.5
					s0,0.2,0.1,0.5c0,0.3,0.1,0.8,0.1,1.5c0,1.3-0.1,3.2-0.9,5.3c-0.4,1-1,2.1-1.7,3.1c-0.8,1-1.8,2-2.9,2.8c-1.1,0.8-2.5,1.5-4,1.8
					c-1.5,0.3-3,0.2-4.5,0.1c-1.5-0.1-2.9-0.3-4.3-0.1c-1.4,0.2-2.6,0.7-3.7,1.4c-1.1,0.7-2,1.6-2.8,2.5c-0.7,0.9-1.2,1.9-1.5,2.9
					c-0.5,1.9-0.2,3.7,0.1,4.8c0.2,0.6,0.3,1,0.4,1.3c0.1,0.1,0.1,0.2,0.1,0.3c0,0.1,0,0.1,0,0.1L25.5,42.4z"/>
			</g>
			<g>
				<path class="st14" d="M31.1,28.1c0.2-0.7,0.3-1.7,0.4-2.9c0-0.6,0-1.3,0.1-2c0-0.6,0-1.2,0-1.9c1.5-0.5,7.2-2.9,3.3-9.5
					C30.4,4.3,26.4,4,26.4,4s-4.1,1.6-2.6,9.1c1.5,7.5,5.1,8,5.1,8s1.5-2.6-0.8-11.3C27.8,8.4,28,8,28.2,8c0,0,0,0.1,0,0.1
					c0.2,0.6,0.5,1.1,0.7,1.8c0.2,0.7,0.4,1.4,0.6,2.1c0.2,0.6,0.3,1.2,0.5,1.9c0.1,0.8,0.3,1.6,0.4,2.5c0.1,0.9,0.3,1.7,0.3,2.5
					c0,0.8,0.1,1.5,0.1,2.3c0.1,0.7,0,1.5,0,2.1c0,0.7-0.1,1.3-0.1,1.9c-0.2,1.2-0.3,2.1-0.5,2.8c-0.1,0.6-0.3,1-0.3,1l1.1,0.3
					C30.9,29.2,31,28.9,31.1,28.1z"/>
			</g>
			<g>
				<path class="st14" d="M45.8,26.9c0.2-0.3,0.4-0.7,0.6-1.2c0.1-0.3,0.2-0.5,0.3-0.8c0.1-0.2,0.2-0.5,0.3-0.8
					c0.7,0,3.5-0.2,2.8-3.6c-0.8-3.9-2.5-4.6-2.5-4.6s-2,0.1-2.4,3.5c-0.5,3.4,1,4.1,1,4.1s1-0.9,1.3-4.9c0-0.6,0.2-0.7,0.3-0.7
					c0,0,0,0,0,0.1c0,0.3,0.1,0.6,0,0.9c0,0.3,0,0.6-0.1,1c0,0.4-0.1,0.8-0.1,1.2c0,0.2-0.1,0.4-0.1,0.6c-0.1,0.4-0.1,0.9-0.3,1.3
					c-0.1,0.3-0.2,0.7-0.3,1c-0.1,0.3-0.2,0.6-0.3,0.9c-0.1,0.3-0.2,0.5-0.3,0.8c-0.2,0.5-0.4,0.9-0.6,1.1c-0.2,0.3-0.3,0.4-0.3,0.4
					l0.4,0.3C45.5,27.4,45.6,27.2,45.8,26.9z"/>
			</g>
			<g>
				<path class="st14" d="M52.6,16.6c0-0.2,0-0.3,0-0.5c0-0.3,0-0.8,0-1.1c0-0.3-0.1-0.6-0.1-0.9c-0.1-0.3-0.1-0.5-0.2-0.8
					c-0.1-0.3-0.1-0.5-0.2-0.7c0-0.2-0.1-0.4-0.2-0.6c0,0,0,0,0,0c-0.1,0-0.2,0.1-0.1,0.6c0.6,3.1,0,4,0,4s-1.3-0.3-1.6-2.9
					c-0.4-2.7,1.1-3.1,1.1-3.1s1.4,0.2,2.8,3c1.2,2.4-0.8,3.1-1.4,3.3L52.6,16.6z"/>
			</g>
		</g>
	</g>
	<g>
		<path class="st13" d="M60.5,36.7c-0.4,0.7-1,1.2-1.8,1.7C58,38.8,57,39,55.8,39h-2.2v5.1h-3.5V29.8h5.6c1.1,0,2.1,0.2,2.9,0.6
			c0.8,0.4,1.4,0.9,1.8,1.6c0.4,0.7,0.6,1.5,0.6,2.4C61.1,35.2,60.9,36,60.5,36.7z M57.1,35.7c0.3-0.3,0.5-0.8,0.5-1.3
			s-0.2-1-0.5-1.3c-0.3-0.3-0.8-0.5-1.5-0.5h-1.9v3.6h1.9C56.2,36.2,56.7,36,57.1,35.7z"/>
		<path class="st13" d="M76.6,29.8v14.3h-3.5v-5.9h-5.4v5.9h-3.5V29.8h3.5v5.6h5.4v-5.6H76.6z"/>
		<path class="st13" d="M89.3,41.6H84l-0.9,2.5h-3.6l5.2-14.3h4l5.2,14.3h-3.7L89.3,41.6z M88.4,38.9l-1.8-5.2l-1.8,5.2H88.4z"/>
		<path class="st13" d="M104,44.1l-3-5.4h-0.8v5.4h-3.5V29.8h5.9c1.1,0,2.1,0.2,2.9,0.6c0.8,0.4,1.4,0.9,1.8,1.6
			c0.4,0.7,0.6,1.5,0.6,2.3c0,1-0.3,1.8-0.8,2.5c-0.5,0.7-1.3,1.3-2.4,1.6l3.3,5.7H104z M100.2,36.2h2.2c0.6,0,1.1-0.2,1.4-0.5
			c0.3-0.3,0.5-0.8,0.5-1.3c0-0.5-0.2-1-0.5-1.3c-0.3-0.3-0.8-0.5-1.4-0.5h-2.2V36.2z"/>
		<path class="st13" d="M127.5,29.8v14.3H124v-8.6l-3.2,8.6H118l-3.2-8.6v8.6h-3.5V29.8h4.1l4,9.9l4-9.9H127.5z"/>
		<path class="st13" d="M140.2,41.6h-5.3l-0.9,2.5h-3.6l5.2-14.3h4l5.2,14.3H141L140.2,41.6z M139.3,38.9l-1.8-5.2l-1.8,5.2H139.3z"
			/>
		<path class="st37" d="M59.4,58.6c-0.3,0.6-0.9,1.1-1.6,1.5c-0.7,0.4-1.6,0.6-2.6,0.6h-1.9v4.6h-3.1V52.4h5.1c1,0,1.9,0.2,2.6,0.5
			c0.7,0.4,1.2,0.8,1.6,1.5s0.5,1.3,0.5,2.2C59.9,57.3,59.7,58,59.4,58.6z M56.3,57.7c0.3-0.3,0.4-0.7,0.4-1.2
			c0-0.5-0.1-0.9-0.4-1.2c-0.3-0.3-0.7-0.4-1.3-0.4h-1.7v3.2h1.7C55.5,58.2,56,58,56.3,57.7z"/>
		<path class="st37" d="M71.7,59.8c0.5,0.6,0.7,1.2,0.7,2c0,1.1-0.4,1.9-1.1,2.6c-0.8,0.6-1.8,0.9-3.2,0.9h-6V52.4h5.8
			c1.3,0,2.3,0.3,3.1,0.9c0.7,0.6,1.1,1.4,1.1,2.4c0,0.8-0.2,1.4-0.6,1.9c-0.4,0.5-0.9,0.9-1.6,1C70.7,58.8,71.3,59.2,71.7,59.8z
			 M65.2,57.6h2.1c0.5,0,0.9-0.1,1.2-0.3c0.3-0.2,0.4-0.6,0.4-1c0-0.4-0.1-0.8-0.4-1s-0.7-0.3-1.2-0.3h-2.1V57.6z M68.8,62.4
			c0.3-0.2,0.4-0.6,0.4-1c0-0.5-0.2-0.8-0.5-1.1c-0.3-0.3-0.7-0.4-1.2-0.4h-2.3v2.9h2.3C68.1,62.8,68.5,62.6,68.8,62.4z"/>
		<path class="st37" d="M75.1,55.4c0.6-1,1.3-1.8,2.3-2.3c1-0.6,2.1-0.8,3.4-0.8c1.5,0,2.8,0.4,3.9,1.2c1.1,0.8,1.8,1.9,2.2,3.3
			h-3.5c-0.3-0.5-0.6-0.9-1.1-1.2c-0.5-0.3-1-0.4-1.6-0.4c-1,0-1.8,0.3-2.4,1c-0.6,0.7-0.9,1.6-0.9,2.7s0.3,2,0.9,2.7
			c0.6,0.7,1.4,1,2.4,1c0.6,0,1.1-0.1,1.6-0.4c0.5-0.3,0.8-0.7,1.1-1.2h3.5c-0.4,1.4-1.1,2.5-2.2,3.3c-1.1,0.8-2.4,1.2-3.9,1.2
			c-1.3,0-2.4-0.3-3.4-0.8c-1-0.6-1.8-1.3-2.3-2.3c-0.6-1-0.8-2.1-0.8-3.4S74.5,56.4,75.1,55.4z"/>
		<path class="st37" d="M97.2,57.5v2.6h-8.1v-2.6H97.2z"/>
		<path class="st37" d="M100.7,62.3c1.2-1,2.1-1.8,2.8-2.4c0.7-0.6,1.3-1.3,1.8-2c0.5-0.7,0.7-1.4,0.7-2c0-0.5-0.1-0.9-0.3-1.2
			c-0.2-0.3-0.6-0.4-1-0.4s-0.8,0.2-1.1,0.5c-0.3,0.3-0.4,0.8-0.4,1.5h-3c0-1,0.2-1.9,0.7-2.6c0.4-0.7,1-1.2,1.7-1.5
			c0.7-0.3,1.5-0.5,2.3-0.5c1.5,0,2.6,0.4,3.3,1.1s1.1,1.7,1.1,2.9c0,1.3-0.4,2.5-1.3,3.6c-0.9,1.1-2,2.2-3.4,3.3h5v2.6h-9.2v-2.3
			C100.5,62.4,100.7,62.3,100.7,62.3z"/>
		<path class="st37" d="M112.5,53.4c0.8-1.2,2.1-1.8,3.9-1.8c1.8,0,3.1,0.6,3.9,1.8s1.2,2.9,1.2,5c0,2.1-0.4,3.8-1.2,5
			s-2.1,1.8-3.9,1.8c-1.8,0-3.1-0.6-3.9-1.8c-0.8-1.2-1.2-2.9-1.2-5C111.3,56.3,111.7,54.6,112.5,53.4z M118.1,55.5
			c-0.3-0.7-0.8-1-1.7-1c-0.8,0-1.4,0.3-1.7,1c-0.3,0.7-0.4,1.6-0.4,2.9c0,0.8,0,1.5,0.1,2.1c0.1,0.5,0.3,1,0.6,1.3
			c0.3,0.3,0.7,0.5,1.3,0.5s1-0.2,1.3-0.5c0.3-0.3,0.5-0.8,0.6-1.3c0.1-0.5,0.1-1.2,0.1-2.1C118.5,57.2,118.4,56.2,118.1,55.5z"/>
		<path class="st37" d="M124.3,62.3c1.2-1,2.1-1.8,2.8-2.4c0.7-0.6,1.3-1.3,1.8-2c0.5-0.7,0.7-1.4,0.7-2c0-0.5-0.1-0.9-0.3-1.2
			c-0.2-0.3-0.6-0.4-1-0.4s-0.8,0.2-1.1,0.5c-0.3,0.3-0.4,0.8-0.4,1.5h-3c0-1,0.2-1.9,0.7-2.6c0.4-0.7,1-1.2,1.7-1.5
			c0.7-0.3,1.5-0.5,2.3-0.5c1.5,0,2.6,0.4,3.3,1.1s1.1,1.7,1.1,2.9c0,1.3-0.4,2.5-1.3,3.6c-0.9,1.1-2,2.2-3.4,3.3h5v2.6h-9.2v-2.3
			C124.1,62.4,124.3,62.3,124.3,62.3z"/>
		<path class="st37" d="M143.4,54.2l-4.6,11.1h-3.2l4.7-10.7h-5.7v-2.7h8.9V54.2z"/>
	</g>
	<g>
		<path class="st91" d="M169.1,30.9v12.5h-1.6v-9.3l-4.1,9.3h-1.2l-4.2-9.3v9.3h-1.6V30.9h1.8l4.6,10.3l4.6-10.3H169.1z"/>
		<path class="st91" d="M179.3,40.6h-5.5l-1,2.8h-1.7l4.5-12.5h1.9l4.5,12.5h-1.7L179.3,40.6z M178.8,39.3l-2.3-6.3l-2.3,6.3H178.8z
			"/>
		<path class="st91" d="M192.8,30.8l-4.1,7.8v4.7h-1.6v-4.7l-4.1-7.8h1.8l3.1,6.4l3.1-6.4H192.8z"/>
		<path class="st91" d="M159.5,61c0.9-0.8,1.6-1.6,2.2-2.5s0.9-1.7,0.9-2.5c0-0.8-0.2-1.4-0.6-1.8c-0.4-0.5-1-0.7-1.8-0.7
			c-0.8,0-1.4,0.3-1.9,0.8c-0.5,0.5-0.7,1.2-0.7,2H156c0-1.3,0.5-2.4,1.2-3.1c0.8-0.7,1.8-1.1,3-1.1c1.2,0,2.2,0.3,2.9,1
			c0.7,0.7,1.1,1.6,1.1,2.8c0,1-0.3,2-0.9,2.9s-1.3,1.8-2,2.5s-1.7,1.5-2.9,2.5h6.2v1.4h-8.7v-1.2C157.5,62.8,158.6,61.8,159.5,61z"
			/>
		<path class="st91" d="M167.5,53.9c0.7-1.2,1.8-1.7,3.5-1.7c1.7,0,2.8,0.6,3.5,1.7c0.7,1.2,1,2.8,1,4.8c0,2.1-0.3,3.7-1,4.9
			c-0.7,1.2-1.8,1.7-3.5,1.7c-1.7,0-2.9-0.6-3.5-1.7c-0.7-1.2-1-2.8-1-4.9C166.5,56.7,166.8,55.1,167.5,53.9z M173.7,56.1
			c-0.1-0.7-0.4-1.3-0.8-1.8c-0.4-0.4-1-0.7-1.8-0.7c-0.8,0-1.4,0.2-1.9,0.7c-0.4,0.4-0.7,1-0.8,1.8c-0.1,0.7-0.2,1.6-0.2,2.7
			c0,1.1,0.1,2,0.2,2.7c0.1,0.7,0.4,1.3,0.8,1.8c0.4,0.4,1,0.7,1.9,0.7c0.8,0,1.4-0.2,1.8-0.7c0.4-0.4,0.7-1,0.8-1.8
			c0.1-0.7,0.2-1.6,0.2-2.7C173.9,57.7,173.8,56.8,173.7,56.1z"/>
		<path class="st91" d="M184.9,58.1v1.4h-7.2v-1.4H184.9z"/>
		<path class="st91" d="M191.1,61c0.9-0.8,1.6-1.6,2.2-2.5s0.9-1.7,0.9-2.5c0-0.8-0.2-1.4-0.6-1.8c-0.4-0.5-1-0.7-1.8-0.7
			c-0.8,0-1.4,0.3-1.9,0.8c-0.5,0.5-0.7,1.2-0.7,2h-1.6c0-1.3,0.5-2.4,1.2-3.1c0.8-0.7,1.8-1.1,3-1.1c1.2,0,2.2,0.3,2.9,1
			c0.7,0.7,1.1,1.6,1.1,2.8c0,1-0.3,2-0.9,2.9s-1.3,1.8-2,2.5s-1.7,1.5-2.9,2.5h6.2v1.4h-8.7v-1.2C189,62.8,190.2,61.8,191.1,61z"/>
		<path class="st91" d="M197.6,53.9v-1.5h3.4v13h-1.7V53.9H197.6z"/>
	</g>
	<g>
		<rect x="150.5" y="30.3" class="st91" width="1" height="35.1"/>
	</g>
</g>
</svg>
