<?xml version="1.0" encoding="utf-8"?>
<!-- Generator: Adobe Illustrator 24.3.0, SVG Export Plug-In . SVG Version: 6.00 Build 0)  -->
<svg version="1.1" id="Layer_1" xmlns="http://www.w3.org/2000/svg" xmlns:xlink="http://www.w3.org/1999/xlink" x="0px" y="0px"
	 viewBox="0 0 143.4 65" style="enable-background:new 0 0 143.4 65;" xml:space="preserve">
<style type="text/css">
	.st0{fill:#2F2F2F;}
	.st1{fill:#B21A81;}
	.st2{fill:#FFFFFF;}
	.st3{fill:#3C3E3D;}
	.st4{fill:#31BFC3;}
	.st5{opacity:0.25;}
	.st6{fill:#808080;}
	.st7{fill:none;stroke:#808080;stroke-width:0.3983;stroke-miterlimit:10;}
	.st8{fill:#93B48E;}
	.st9{opacity:0.88;fill:none;stroke:#93B48E;stroke-width:0.914;stroke-miterlimit:10;}
	.st10{fill:#E9A036;}
	.st11{fill:#A95A21;}
	.st12{fill:none;stroke:#DE001C;stroke-width:0.4874;stroke-miterlimit:10;}
	.st13{fill:#1C816E;}
	.st14{fill:#5BB9A4;}
	.st15{fill:#122D24;}
	.st16{fill:#175929;}
	.st17{fill:#80BC27;}
	.st18{fill:#7FBA28;}
	.st19{fill:#7FB829;}
	.st20{fill:#80BC28;}
	.st21{fill:#80BC2A;}
	.st22{fill:#3C7651;}
	.st23{fill:#3B7550;}
	.st24{fill:#80AA94;}
	.st25{fill:#FAFCFC;}
	.st26{fill:#25524A;}
	.st27{fill:#A9A01F;}
	.st28{fill:#23995B;}
	.st29{fill:#1D4479;}
	.st30{fill:none;stroke:#262728;stroke-width:1.0774;stroke-miterlimit:10;}
	.st31{fill:#28378C;}
	.st32{fill:#40A6E2;}
	.st33{fill:#FCCE1C;}
	.st34{fill:none;stroke:#737373;stroke-width:1.11;stroke-miterlimit:10;}
	.st35{fill:#00B9D7;}
	.st36{fill:none;stroke:#FFFFFF;stroke-width:1.5619;stroke-miterlimit:10;}
	.st37{fill:#2B3A3B;}
	.st38{fill:none;stroke:#6E1215;stroke-width:0.6419;stroke-miterlimit:10;}
	.st39{fill:none;stroke:#6E1215;stroke-width:0.4466;stroke-miterlimit:10;}
	.st40{opacity:0.88;fill:none;stroke:#93B48E;stroke-width:0.5596;stroke-miterlimit:10;}
	.st41{fill:none;stroke:#FFFFFF;stroke-width:0.9404;stroke-miterlimit:10;}
	.st42{fill:none;stroke:#737373;stroke-width:0.5012;stroke-miterlimit:10;}
	.st43{fill:none;stroke:#FFFFFF;stroke-width:1.3888;stroke-miterlimit:10;}
	.st44{fill:none;stroke:#737373;stroke-width:0.7403;stroke-miterlimit:10;}
	.st45{fill:none;stroke:#23995B;stroke-width:0.6635;stroke-miterlimit:10;}
	.st46{fill:none;stroke:#23995B;stroke-width:0.3962;stroke-miterlimit:10;}
	.st47{fill:none;stroke:#28378C;stroke-width:2;stroke-miterlimit:10;}
	.st48{fill:none;stroke:#28378C;stroke-width:1.0909;stroke-miterlimit:10;}
	.st49{fill:#96AFCE;}
	.st50{fill:#3B3888;}
	.st51{fill:none;stroke:#DE001C;stroke-width:0.451;stroke-miterlimit:10;}
	.st52{fill:none;stroke:#DE001C;stroke-width:0.1983;stroke-miterlimit:10;}
	.st53{fill:none;stroke:#DE001C;stroke-width:0.3536;stroke-miterlimit:10;}
	.st54{fill:none;stroke:#808080;stroke-width:0.3418;stroke-miterlimit:10;}
	.st55{fill:none;stroke:#808080;stroke-width:0.2279;stroke-miterlimit:10;}
	.st56{fill:#37B2B5;}
	.st57{fill:#000100;}
	.st58{fill:none;stroke:#C85119;stroke-width:0.8469;stroke-miterlimit:10;}
	.st59{fill:#C85119;}
	.st60{fill:#1A1718;}
	.st61{fill:none;stroke:#96AFCE;stroke-width:0.5236;stroke-miterlimit:10;}
	.st62{fill:#F2F3F1;}
	.st63{fill:#F2F3F2;}
	.st64{fill:#F1F6F2;}
	.st65{fill:#EFF2F0;}
	.st66{fill:#DFE8E2;}
	.st67{fill:#EDF0EC;}
	.st68{fill:none;stroke:#808080;stroke-width:0.736;stroke-miterlimit:10;}
	.st69{fill:none;stroke:#25524A;stroke-width:1.193;stroke-miterlimit:10;}
	.st70{fill:#3CA835;}
	.st71{fill:#020201;}
	.st72{fill:#37B2B5;stroke:#37B2B5;stroke-width:0.6822;stroke-miterlimit:10;}
	.st73{fill:#737373;}
	.st74{fill:#0B4485;}
	.st75{fill:none;stroke:#262728;stroke-width:1.1895;stroke-miterlimit:10;}
	.st76{fill:#6E1215;}
	.st77{opacity:0.88;}
	.st78{fill:#DE001C;}
	.st79{fill:#DF001B;}
	.st80{fill:#020201;stroke:#FFFFFF;stroke-width:0.5409;stroke-miterlimit:10;}
	.st81{fill:#DF001B;stroke:#FFFFFF;stroke-width:0.5409;stroke-miterlimit:10;}
	.st82{fill:#FFFFFF;stroke:#FFFFFF;stroke-width:2;stroke-miterlimit:10;}
	.st83{fill:#23985B;}
	.st84{fill:#262728;}
	.st85{fill:none;stroke:#FFFFFF;stroke-width:1.6144;stroke-miterlimit:10;}
	.st86{fill:none;stroke:#737373;stroke-width:0.7652;stroke-miterlimit:10;}
	.st87{fill:none;stroke:#808080;stroke-width:0.3675;stroke-miterlimit:10;}
	.st88{fill:none;stroke:#40A6E2;stroke-width:1.408;stroke-miterlimit:10;}
	.st89{fill:#DF001B;stroke:#FFFFFF;stroke-width:0.4562;stroke-miterlimit:10;}
	.st90{fill:#1A1818;}
</style>
<g>
	<g>
		<path class="st13" d="M54.7,37c-0.3,0.6-0.9,1.1-1.6,1.5c-0.7,0.4-1.6,0.6-2.6,0.6h-1.9v4.6h-3.1V30.8h5.1c1,0,1.9,0.2,2.6,0.5
			c0.7,0.4,1.2,0.8,1.6,1.5s0.5,1.3,0.5,2.2C55.2,35.7,55,36.4,54.7,37z M51.6,36.2c0.3-0.3,0.4-0.7,0.4-1.2c0-0.5-0.1-0.9-0.4-1.2
			c-0.3-0.3-0.7-0.4-1.3-0.4h-1.7v3.2h1.7C50.8,36.6,51.3,36.5,51.6,36.2z"/>
		<path class="st13" d="M67.6,38.2c0.5,0.6,0.7,1.2,0.7,2c0,1.1-0.4,1.9-1.1,2.6c-0.8,0.6-1.8,0.9-3.2,0.9h-6V30.8h5.8
			c1.3,0,2.3,0.3,3.1,0.9c0.7,0.6,1.1,1.4,1.1,2.4c0,0.8-0.2,1.4-0.6,1.9c-0.4,0.5-0.9,0.9-1.6,1C66.6,37.3,67.2,37.7,67.6,38.2z
			 M61.1,36.1h2.1c0.5,0,0.9-0.1,1.2-0.3c0.3-0.2,0.4-0.6,0.4-1c0-0.4-0.1-0.8-0.4-1s-0.7-0.3-1.2-0.3h-2.1V36.1z M64.7,40.8
			c0.3-0.2,0.4-0.6,0.4-1c0-0.5-0.2-0.8-0.5-1.1c-0.3-0.3-0.7-0.4-1.2-0.4h-2.3v2.9h2.3C64,41.2,64.4,41.1,64.7,40.8z"/>
		<path class="st13" d="M71.6,33.9c0.6-1,1.3-1.8,2.3-2.3c1-0.6,2.1-0.8,3.4-0.8c1.5,0,2.8,0.4,3.9,1.2c1.1,0.8,1.8,1.9,2.2,3.3
			h-3.5c-0.3-0.5-0.6-0.9-1.1-1.2c-0.5-0.3-1-0.4-1.6-0.4c-1,0-1.8,0.3-2.4,1c-0.6,0.7-0.9,1.6-0.9,2.7s0.3,2,0.9,2.7
			c0.6,0.7,1.4,1,2.4,1c0.6,0,1.1-0.1,1.6-0.4c0.5-0.3,0.8-0.7,1.1-1.2h3.5c-0.4,1.4-1.1,2.5-2.2,3.3c-1.1,0.8-2.4,1.2-3.9,1.2
			c-1.3,0-2.4-0.3-3.4-0.8c-1-0.6-1.8-1.3-2.3-2.3c-0.6-1-0.8-2.1-0.8-3.4S71,34.9,71.6,33.9z"/>
		<path class="st13" d="M94.4,36v2.6h-8.1V36H94.4z"/>
		<path class="st13" d="M98.4,40.8c1.2-1,2.1-1.8,2.8-2.4c0.7-0.6,1.3-1.3,1.8-2c0.5-0.7,0.7-1.4,0.7-2c0-0.5-0.1-0.9-0.3-1.2
			c-0.2-0.3-0.6-0.4-1-0.4s-0.8,0.2-1.1,0.5c-0.3,0.3-0.4,0.8-0.4,1.5h-3c0-1,0.2-1.9,0.7-2.6c0.4-0.7,1-1.2,1.7-1.5
			c0.7-0.3,1.5-0.5,2.3-0.5c1.5,0,2.6,0.4,3.3,1.1s1.1,1.7,1.1,2.9c0,1.3-0.4,2.5-1.3,3.6c-0.9,1.1-2,2.2-3.4,3.3h5v2.6h-9.2v-2.3
			C98.3,40.9,98.5,40.7,98.4,40.8z"/>
		<path class="st13" d="M109.7,31.9c0.8-1.2,2.1-1.8,3.9-1.8c1.8,0,3.1,0.6,3.9,1.8s1.2,2.9,1.2,5c0,2.1-0.4,3.8-1.2,5
			s-2.1,1.8-3.9,1.8c-1.8,0-3.1-0.6-3.9-1.8c-0.8-1.2-1.2-2.9-1.2-5C108.5,34.7,108.9,33.1,109.7,31.9z M115.3,34
			c-0.3-0.7-0.8-1-1.7-1c-0.8,0-1.4,0.3-1.7,1c-0.3,0.7-0.4,1.6-0.4,2.9c0,0.8,0,1.5,0.1,2.1c0.1,0.5,0.3,1,0.6,1.3
			c0.3,0.3,0.7,0.5,1.3,0.5s1-0.2,1.3-0.5c0.3-0.3,0.5-0.8,0.6-1.3c0.1-0.5,0.1-1.2,0.1-2.1C115.7,35.6,115.6,34.7,115.3,34z"/>
		<path class="st13" d="M120.9,40.8c1.2-1,2.1-1.8,2.8-2.4c0.7-0.6,1.3-1.3,1.8-2c0.5-0.7,0.7-1.4,0.7-2c0-0.5-0.1-0.9-0.3-1.2
			c-0.2-0.3-0.6-0.4-1-0.4s-0.8,0.2-1.1,0.5c-0.3,0.3-0.4,0.8-0.4,1.5h-3c0-1,0.2-1.9,0.7-2.6c0.4-0.7,1-1.2,1.7-1.5
			c0.7-0.3,1.5-0.5,2.3-0.5c1.5,0,2.6,0.4,3.3,1.1s1.1,1.7,1.1,2.9c0,1.3-0.4,2.5-1.3,3.6c-0.9,1.1-2,2.2-3.4,3.3h5v2.6h-9.2v-2.3
			C120.7,40.9,120.9,40.7,120.9,40.8z"/>
		<path class="st13" d="M137.1,32.9c-0.2-0.2-0.6-0.3-1-0.3c-0.7,0-1.2,0.3-1.5,0.9c-0.3,0.6-0.5,1.6-0.5,2.9c0.3-0.4,0.7-0.8,1.2-1
			c0.5-0.2,1.1-0.4,1.7-0.4c1.2,0,2.2,0.4,2.9,1.1c0.7,0.8,1.1,1.8,1.1,3.2c0,0.9-0.2,1.7-0.5,2.4c-0.4,0.7-0.9,1.2-1.6,1.6
			c-0.7,0.4-1.5,0.6-2.5,0.6c-1.9,0-3.2-0.6-3.9-1.8c-0.7-1.2-1.1-2.9-1.1-5.1c0-2.3,0.4-4.1,1.2-5.2c0.8-1.1,2-1.7,3.7-1.7
			c0.9,0,1.7,0.2,2.3,0.5c0.6,0.4,1.1,0.8,1.4,1.4c0.3,0.6,0.5,1.2,0.6,1.9h-2.9C137.5,33.5,137.3,33.2,137.1,32.9z M134.8,37.9
			c-0.3,0.3-0.5,0.8-0.5,1.3c0,0.6,0.2,1,0.5,1.4c0.3,0.3,0.8,0.5,1.4,0.5c0.5,0,1-0.2,1.3-0.5c0.3-0.3,0.5-0.8,0.5-1.3
			c0-0.6-0.2-1-0.5-1.4c-0.3-0.3-0.7-0.5-1.3-0.5C135.6,37.5,135.2,37.6,134.8,37.9z"/>
	</g>
	<g>
		<g>
			<g>
				<path class="st13" d="M14.3,19.6c-3.9-2.3-8.9-1-11.2,2.9c-2.3,3.9-1,8.9,2.9,11.2l12.8,7.5L27,27.1L14.3,19.6z M18.2,38.9
					L6.9,32.2c-3.1-1.8-4.1-5.8-2.3-8.9c1.8-3.1,5.8-4.1,8.9-2.3l11.3,6.6L24,29L18.2,38.9z"/>
			</g>
		</g>
		<g>
			<path class="st13" d="M27,63.5C27,63.5,27,63.5,27,63.5c1.8,0,3.5-0.6,4.8-1.6c0.1-0.1,0.2-0.2,0.4-0.3c1.9-1.5,3-3.8,3-6.4
				l0-14.1l-16.4,0l0,14.1c0,1.2,0.3,2.3,0.7,3.3C20.8,61.5,23.7,63.5,27,63.5C26.9,63.5,27,63.5,27,63.5z"/>
		</g>
		<g>
			<g>
				<path class="st14" d="M26.7,40.2c0,0,0-0.1-0.1-0.2c0-0.1-0.1-0.2-0.2-0.4c-0.1-0.4-0.3-0.9-0.5-1.6c-0.3-1.3-0.5-3.4,0.2-5.7
					c0.4-1.1,1-2.3,1.9-3.3c0.9-1,2-1.9,3.3-2.6c1.3-0.7,2.7-1.3,4.2-1.4c1.5-0.2,3,0.1,4.5,0.3c1.4,0.2,2.9,0.3,4.3,0.1
					c1.4-0.2,2.7-0.8,3.8-1.5c1.2-0.8,2.1-1.6,2.9-2.6c0.8-1,1.4-2,1.8-3c0.8-2,1-3.9,1-5.2c0-0.6,0-1.1-0.1-1.5c0-0.3,0-0.5,0-0.5
					s0,0.2,0.1,0.5c0,0.3,0.1,0.8,0.1,1.5c0,1.3-0.1,3.2-0.9,5.3c-0.4,1-1,2.1-1.7,3.1c-0.8,1-1.8,2-2.9,2.8c-1.1,0.8-2.5,1.5-4,1.8
					c-1.5,0.3-3,0.2-4.5,0.1c-1.5-0.1-2.9-0.3-4.3-0.1c-1.4,0.2-2.6,0.7-3.7,1.4c-1.1,0.7-2,1.6-2.8,2.5c-0.7,0.9-1.2,1.9-1.5,2.9
					c-0.5,1.9-0.2,3.7,0.1,4.8c0.2,0.6,0.3,1,0.4,1.3c0.1,0.1,0.1,0.2,0.1,0.3c0,0.1,0,0.1,0,0.1L26.7,40.2z"/>
			</g>
			<g>
				<path class="st14" d="M32.4,25.9c0.2-0.7,0.3-1.7,0.4-2.9c0-0.6,0-1.3,0.1-2c0-0.6,0-1.2,0-1.9c1.5-0.5,7.2-2.9,3.3-9.5
					c-4.5-7.5-8.4-7.9-8.4-7.9s-4.1,1.6-2.6,9.1c1.5,7.5,5.1,8,5.1,8s1.5-2.6-0.8-11.3c-0.4-1.4-0.1-1.7,0.1-1.8c0,0,0,0.1,0,0.1
					C29.7,6.4,30,7,30.1,7.7c0.2,0.7,0.4,1.4,0.6,2.1c0.2,0.6,0.3,1.2,0.5,1.9c0.1,0.8,0.3,1.6,0.4,2.5c0.1,0.9,0.3,1.7,0.3,2.5
					c0,0.8,0.1,1.5,0.1,2.3c0.1,0.7,0,1.5,0,2.1c0,0.7-0.1,1.3-0.1,1.9c-0.2,1.2-0.3,2.1-0.5,2.8c-0.1,0.6-0.3,1-0.3,1l1.1,0.3
					C32.1,27,32.2,26.7,32.4,25.9z"/>
			</g>
			<g>
				<path class="st14" d="M47,24.7c0.2-0.3,0.4-0.7,0.6-1.2c0.1-0.3,0.2-0.5,0.3-0.8c0.1-0.2,0.2-0.5,0.3-0.8c0.7,0,3.5-0.2,2.8-3.6
					c-0.8-3.9-2.5-4.6-2.5-4.6s-2,0.1-2.4,3.5c-0.5,3.4,1,4.1,1,4.1s1-0.9,1.3-4.9c0-0.6,0.2-0.7,0.3-0.7c0,0,0,0,0,0.1
					c0,0.3,0.1,0.6,0,0.9c0,0.3,0,0.6-0.1,1c0,0.4-0.1,0.8-0.1,1.2c0,0.2-0.1,0.4-0.1,0.6c-0.1,0.4-0.1,0.9-0.3,1.3
					c-0.1,0.3-0.2,0.7-0.3,1c-0.1,0.3-0.2,0.6-0.3,0.9c-0.1,0.3-0.2,0.5-0.3,0.8c-0.2,0.5-0.4,0.9-0.6,1.1c-0.2,0.3-0.3,0.4-0.3,0.4
					l0.4,0.3C46.7,25.2,46.8,25,47,24.7z"/>
			</g>
			<g>
				<path class="st14" d="M53.8,14.4c0-0.2,0-0.3,0-0.5c0-0.3,0-0.8,0-1.1c0-0.3-0.1-0.6-0.1-0.9c-0.1-0.3-0.1-0.5-0.2-0.8
					c-0.1-0.3-0.1-0.5-0.2-0.7c0-0.2-0.1-0.4-0.2-0.6c0,0,0,0,0,0c-0.1,0-0.2,0.1-0.1,0.6c0.6,3.1,0,4,0,4s-1.3-0.3-1.6-2.9
					c-0.4-2.7,1.1-3.1,1.1-3.1s1.4,0.2,2.8,3c1.2,2.4-0.8,3.1-1.4,3.3L53.8,14.4z"/>
			</g>
		</g>
	</g>
	<g>
		<rect x="45.1" y="47.7" class="st37" width="95.9" height="16.3"/>
	</g>
	<g>
		<path class="st2" d="M58.9,51.3V61h-1.3v-7.3L54.3,61h-0.9l-3.3-7.3V61h-1.3v-9.8h1.4l3.6,8.1l3.6-8.1H58.9z"/>
		<path class="st2" d="M69.4,58.8h-4.3L64.3,61H63l3.6-9.8H68l3.5,9.8h-1.4L69.4,58.8z M69,57.8l-1.8-5l-1.8,5H69z"/>
		<path class="st2" d="M82.5,51.2l-3.2,6.1V61H78v-3.7l-3.2-6.1h1.4l2.4,5l2.4-5H82.5z"/>
		<path class="st2" d="M95.1,57.6c0.7-0.6,1.2-1.3,1.7-1.9c0.5-0.7,0.7-1.3,0.7-2c0-0.6-0.1-1.1-0.4-1.4c-0.3-0.4-0.8-0.5-1.4-0.5
			c-0.6,0-1.1,0.2-1.5,0.6c-0.4,0.4-0.5,0.9-0.6,1.6h-1.2c0-1.1,0.4-1.9,1-2.4c0.6-0.6,1.4-0.9,2.3-0.9c1,0,1.7,0.3,2.3,0.8
			c0.6,0.5,0.9,1.3,0.9,2.2c0,0.8-0.2,1.5-0.7,2.3s-1,1.4-1.6,1.9s-1.3,1.2-2.3,2h4.8v1.1h-6.8V60C93.5,59,94.5,58.2,95.1,57.6z"/>
		<path class="st2" d="M102.8,52v-1.2h2.7V61h-1.3v-9H102.8z"/>
		<path class="st2" d="M115.7,55.3v1.1h-5.6v-1.1H115.7z"/>
		<path class="st2" d="M123.1,57.6c0.7-0.6,1.2-1.3,1.7-1.9c0.5-0.7,0.7-1.3,0.7-2c0-0.6-0.1-1.1-0.4-1.4c-0.3-0.4-0.8-0.5-1.4-0.5
			c-0.6,0-1.1,0.2-1.5,0.6c-0.4,0.4-0.5,0.9-0.6,1.6h-1.2c0-1.1,0.4-1.9,1-2.4c0.6-0.6,1.4-0.9,2.3-0.9c1,0,1.7,0.3,2.3,0.8
			c0.6,0.5,0.9,1.3,0.9,2.2c0,0.8-0.2,1.5-0.7,2.3s-1,1.4-1.6,1.9s-1.3,1.2-2.3,2h4.8v1.1h-6.8V60C121.5,59,122.4,58.2,123.1,57.6z"
			/>
		<path class="st2" d="M133.8,57.6c0.7-0.6,1.2-1.3,1.7-1.9c0.5-0.7,0.7-1.3,0.7-2c0-0.6-0.1-1.1-0.4-1.4c-0.3-0.4-0.8-0.5-1.4-0.5
			c-0.6,0-1.1,0.2-1.5,0.6c-0.4,0.4-0.5,0.9-0.6,1.6H131c0-1.1,0.4-1.9,1-2.4c0.6-0.6,1.4-0.9,2.3-0.9c1,0,1.7,0.3,2.3,0.8
			c0.6,0.5,0.9,1.3,0.9,2.2c0,0.8-0.2,1.5-0.7,2.3s-1,1.4-1.6,1.9s-1.3,1.2-2.3,2h4.8v1.1H131V60C132.2,59,133.1,58.2,133.8,57.6z"
			/>
	</g>
</g>
</svg>
