<svg id="Layer_1" data-name="Layer 1" xmlns="http://www.w3.org/2000/svg" viewBox="0 0 202.27 72.43"><defs><style>.cls-1{fill:#1c816e;}.cls-2{fill:#5bb9a4;}.cls-3{fill:#2b3a3b;}.cls-4{fill:#1a1818;}</style></defs><path class="cls-1" d="M12.33,17.77A8.18,8.18,0,1,0,4.05,31.89l12.77,7.5L25.1,25.26Zm3.9,19.29L4.91,30.42a6.48,6.48,0,0,1,6.55-11.18l11.32,6.64L22,27.19Z"/><path class="cls-1" d="M25,61.69h.06a8.09,8.09,0,0,0,4.78-1.56l.37-.27a8.23,8.23,0,0,0,3-6.36V39.39H16.92V53.51a8,8,0,0,0,.73,3.34A8,8,0,0,0,25,61.7Z"/><path class="cls-2" d="M24.74,38.4a1.37,1.37,0,0,0-.07-.16c0-.09-.09-.23-.16-.41a11.87,11.87,0,0,1-.46-1.57,10.88,10.88,0,0,1,.22-5.74,10,10,0,0,1,1.93-3.34,12.91,12.91,0,0,1,3.26-2.62,10.39,10.39,0,0,1,4.24-1.41,18.55,18.55,0,0,1,4.49.28,13.83,13.83,0,0,0,4.25.12A9.9,9.9,0,0,0,46.24,22a12.2,12.2,0,0,0,2.9-2.61,12.58,12.58,0,0,0,1.78-3,14.23,14.23,0,0,0,1-5.17,13.93,13.93,0,0,0-.06-1.49c0-.34,0-.53,0-.53s0,.19.07.53.08.84.11,1.49a14.33,14.33,0,0,1-.87,5.26,12.51,12.51,0,0,1-1.72,3.14,12.68,12.68,0,0,1-2.9,2.8,10.75,10.75,0,0,1-4,1.79,14.64,14.64,0,0,1-4.48.09,17.48,17.48,0,0,0-4.26-.09,9.3,9.3,0,0,0-3.7,1.42,11.64,11.64,0,0,0-2.79,2.48A8.47,8.47,0,0,0,25.87,31,9.05,9.05,0,0,0,26,35.79a10.25,10.25,0,0,0,.45,1.28c.07.14.11.24.15.31l0,.09Z"/><path class="cls-2" d="M30.42,24.14a29.5,29.5,0,0,0,.4-2.93c.05-.6,0-1.26.06-1.95a16.93,16.93,0,0,0,0-1.87c1.49-.5,7.2-2.92,3.29-9.52C29.67.33,25.71,0,25.71,0s-4.08,1.6-2.62,9.06,5.08,8,5.08,8,1.53-2.57-.75-11.29c-.36-1.36-.13-1.68,0-1.76a.61.61,0,0,0,.05.12c.2.56.5,1.13.68,1.79s.37,1.35.56,2.07.34,1.24.51,1.87l.42,2.46c.09.86.29,1.7.32,2.55s0,1.54.08,2.28A14.8,14.8,0,0,1,30,19.23c-.05.67-.07,1.31-.14,1.89a25.38,25.38,0,0,1-.5,2.77,8.4,8.4,0,0,1-.28,1l1.05.31A8.62,8.62,0,0,0,30.42,24.14Z"/><path class="cls-2" d="M45.06,22.94a11.71,11.71,0,0,0,.6-1.19c.11-.26.2-.54.31-.83a6.24,6.24,0,0,0,.25-.8c.71,0,3.5-.21,2.79-3.6-.82-3.87-2.46-4.58-2.46-4.58s-2,.09-2.44,3.49,1,4.14,1,4.14,1-.88,1.31-4.94c0-.63.19-.74.27-.74s0,0,0,0a8.05,8.05,0,0,1,0,.87q0,.46-.06,1c0,.4-.05.8-.07,1.21l-.12.64c-.12.42-.14.86-.27,1.28s-.2.67-.3,1a6.09,6.09,0,0,1-.32.91c-.12.28-.22.54-.34.78a12.18,12.18,0,0,1-.61,1.12c-.16.25-.27.4-.27.4l.4.28A4.85,4.85,0,0,0,45.06,22.94Z"/><path class="cls-2" d="M51.89,12.63c0-.17,0-.34,0-.51a9.21,9.21,0,0,0,0-1c0-.3,0-.6-.08-.9s-.11-.53-.16-.79-.1-.51-.16-.74A5.54,5.54,0,0,0,51.28,8l0,0c-.07,0-.15.13-.06.62.61,3.12,0,4,0,4S50,12.3,49.61,9.65s1.12-3.13,1.12-3.13,1.39.2,2.79,3c1.23,2.41-.83,3.14-1.37,3.28Z"/><path class="cls-1" d="M59.81,32.67a4.14,4.14,0,0,1-1.75,1.66,6.21,6.21,0,0,1-2.94.63H53V40.1H49.48V25.79h5.64a6.52,6.52,0,0,1,2.9.59A4,4,0,0,1,59.79,28a4.78,4.78,0,0,1,.59,2.39A4.61,4.61,0,0,1,59.81,32.67Zm-3.46-1a1.76,1.76,0,0,0,.49-1.32,1.78,1.78,0,0,0-.49-1.33,2.11,2.11,0,0,0-1.49-.47H53v3.59h1.9A2.11,2.11,0,0,0,56.35,31.72Z"/><path class="cls-1" d="M75.88,25.79V40.1H72.39V34.21H67V40.1H63.48V25.79H67V31.4h5.42V25.79Z"/><path class="cls-1" d="M88.58,37.57H83.23l-.85,2.53H78.73l5.18-14.31h4L93.12,40.1H89.43Zm-.9-2.69L85.9,29.64l-1.75,5.24Z"/><path class="cls-1" d="M103.27,40.1l-3-5.4h-.84v5.4H96V25.79h5.85a6.49,6.49,0,0,1,2.88.59A4,4,0,0,1,106.49,28a4.47,4.47,0,0,1,.6,2.29,4.23,4.23,0,0,1-.81,2.55,4.33,4.33,0,0,1-2.37,1.59l3.3,5.67Zm-3.81-7.87h2.16a2,2,0,0,0,1.44-.47,1.75,1.75,0,0,0,.48-1.32,1.73,1.73,0,0,0-.48-1.29,2,2,0,0,0-1.44-.47H99.46Z"/><path class="cls-1" d="M126.76,25.79V40.1h-3.49V31.52l-3.2,8.58h-2.81L114,31.5v8.6h-3.49V25.79h4.12l4,9.91,4-9.91Z"/><path class="cls-1" d="M139.46,37.57h-5.34l-.86,2.53h-3.65l5.18-14.31h4L144,40.1h-3.69Zm-.9-2.69-1.77-5.24L135,34.88Z"/><path class="cls-3" d="M58.67,54.59a3.77,3.77,0,0,1-1.58,1.5,5.56,5.56,0,0,1-2.65.57H52.5v4.63H49.35V48.38h5.09a5.8,5.8,0,0,1,2.62.54,3.56,3.56,0,0,1,1.59,1.47,4.21,4.21,0,0,1,.54,2.15A4.11,4.11,0,0,1,58.67,54.59Zm-3.12-.86a1.84,1.84,0,0,0,0-2.39,1.89,1.89,0,0,0-1.34-.42H52.5v3.23h1.71A1.89,1.89,0,0,0,55.55,53.73Z"/><path class="cls-3" d="M71,55.78a3.18,3.18,0,0,1,.68,2,3.14,3.14,0,0,1-1.13,2.56,4.76,4.76,0,0,1-3.15.95h-6V48.38h5.81a4.79,4.79,0,0,1,3.08.9,3,3,0,0,1,1.11,2.45,2.93,2.93,0,0,1-.6,1.89,3.15,3.15,0,0,1-1.59,1.05A3,3,0,0,1,71,55.78ZM64.52,53.6h2.06a1.79,1.79,0,0,0,1.18-.34,1.2,1.2,0,0,0,.42-1,1.24,1.24,0,0,0-.42-1,1.79,1.79,0,0,0-1.18-.35H64.52Zm3.54,4.79a1.26,1.26,0,0,0,.43-1A1.33,1.33,0,0,0,68,56.29a1.82,1.82,0,0,0-1.24-.39H64.52v2.85h2.32A1.87,1.87,0,0,0,68.06,58.39Z"/><path class="cls-3" d="M74.34,51.41a5.91,5.91,0,0,1,2.31-2.34A6.64,6.64,0,0,1,80,48.23a6.46,6.46,0,0,1,3.94,1.22,5.78,5.78,0,0,1,2.18,3.31H82.67a2.81,2.81,0,0,0-1.1-1.23,3.24,3.24,0,0,0-4,.58,4.52,4.52,0,0,0,0,5.41,3,3,0,0,0,2.35,1,3.09,3.09,0,0,0,1.61-.42,2.81,2.81,0,0,0,1.1-1.23h3.45a5.79,5.79,0,0,1-2.18,3.3A6.51,6.51,0,0,1,80,61.38a6.64,6.64,0,0,1-3.35-.84,5.86,5.86,0,0,1-2.31-2.32,7.4,7.4,0,0,1,0-6.81Z"/><path class="cls-3" d="M96.51,53.53v2.61H88.42V53.53Z"/><path class="cls-3" d="M100,58.31c1.2-1,2.15-1.81,2.84-2.45a11.15,11.15,0,0,0,1.75-2,3.62,3.62,0,0,0,.72-2,1.84,1.84,0,0,0-.35-1.18,1.28,1.28,0,0,0-1.05-.42,1.31,1.31,0,0,0-1.09.52,2.46,2.46,0,0,0-.4,1.48h-3a5.3,5.3,0,0,1,.67-2.61,3.93,3.93,0,0,1,1.67-1.54,5.35,5.35,0,0,1,2.31-.5,4.48,4.48,0,0,1,3.3,1.12,4,4,0,0,1,1.12,2.93,5.71,5.71,0,0,1-1.35,3.65,19.6,19.6,0,0,1-3.42,3.28h5V61.1H99.4V58.77Z"/><path class="cls-3" d="M111.78,49.41a5.19,5.19,0,0,1,7.89,0,8.88,8.88,0,0,1,1.22,5,8.94,8.94,0,0,1-1.22,5,5.19,5.19,0,0,1-7.89,0,8.94,8.94,0,0,1-1.22-5A8.88,8.88,0,0,1,111.78,49.41Zm5.62,2.12a1.9,1.9,0,0,0-3.35,0,8,8,0,0,0-.4,2.86,12.91,12.91,0,0,0,.14,2.07,2.68,2.68,0,0,0,.6,1.33,2,2,0,0,0,2.67,0,2.59,2.59,0,0,0,.59-1.33,11.72,11.72,0,0,0,.15-2.07A8,8,0,0,0,117.4,51.53Z"/><path class="cls-3" d="M123.56,58.31c1.2-1,2.14-1.81,2.84-2.45a11.15,11.15,0,0,0,1.75-2,3.62,3.62,0,0,0,.72-2,1.84,1.84,0,0,0-.35-1.18,1.28,1.28,0,0,0-1.05-.42,1.31,1.31,0,0,0-1.09.52,2.46,2.46,0,0,0-.4,1.48h-3a5.2,5.2,0,0,1,.67-2.61,3.93,3.93,0,0,1,1.67-1.54,5.35,5.35,0,0,1,2.31-.5,4.48,4.48,0,0,1,3.3,1.12A4,4,0,0,1,132,51.62a5.7,5.7,0,0,1-1.34,3.65,19.6,19.6,0,0,1-3.42,3.28h5V61.1H123V58.77Z"/><path class="cls-3" d="M140.27,50.47a1.49,1.49,0,0,0-1.05-.34,1.57,1.57,0,0,0-1.51.91,7,7,0,0,0-.47,2.88,2.76,2.76,0,0,1,1.16-1,3.91,3.91,0,0,1,1.69-.36A3.82,3.82,0,0,1,143,53.68a4.4,4.4,0,0,1,1.1,3.18,4.91,4.91,0,0,1-.55,2.35A3.82,3.82,0,0,1,142,60.79a5,5,0,0,1-2.45.57c-1.89,0-3.2-.59-3.94-1.77a9.78,9.78,0,0,1-1.1-5.1,9.28,9.28,0,0,1,1.17-5.2,4.22,4.22,0,0,1,3.74-1.7,4.6,4.6,0,0,1,2.32.54,3.73,3.73,0,0,1,1.44,1.43,4.88,4.88,0,0,1,.58,1.93h-2.93A1.89,1.89,0,0,0,140.27,50.47Zm-2.25,5a1.68,1.68,0,0,0-.53,1.33A1.9,1.9,0,0,0,138,58.2a1.86,1.86,0,0,0,1.39.5,1.73,1.73,0,0,0,1.28-.49,1.86,1.86,0,0,0,.47-1.33,1.94,1.94,0,0,0-.46-1.36,1.7,1.7,0,0,0-1.33-.5A1.9,1.9,0,0,0,138,55.49Z"/><path class="cls-4" d="M168.78,26.59V39.38H167.1V29.84l-4.25,9.54h-1.19l-4.27-9.56v9.56h-1.68V26.59h1.81l4.74,10.57L167,26.59Z"/><path class="cls-4" d="M179.24,36.51h-5.62l-1,2.87h-1.78l4.66-12.81h1.94l4.64,12.81h-1.77Zm-.48-1.36-2.33-6.51-2.33,6.51Z"/><path class="cls-4" d="M193.1,26.49l-4.19,8v4.86h-1.68V34.52l-4.22-8h1.87L188.06,33l3.18-6.53Z"/><path class="cls-4" d="M158.91,56.93a14.6,14.6,0,0,0,2.25-2.53,4.56,4.56,0,0,0,.91-2.6,2.83,2.83,0,0,0-.58-1.89,2.33,2.33,0,0,0-1.88-.69,2.47,2.47,0,0,0-2,.78,3.31,3.31,0,0,0-.75,2.1h-1.62a4.48,4.48,0,0,1,1.25-3.2,4.77,4.77,0,0,1,6.08-.07,3.8,3.8,0,0,1,1.11,2.9,5.49,5.49,0,0,1-.91,3,13.14,13.14,0,0,1-2.08,2.56c-.78.73-1.77,1.58-3,2.55h6.36v1.41h-8.89V60C156.8,58.77,158,57.74,158.91,56.93Z"/><path class="cls-4" d="M165.62,49.55V48h3.47V61.38h-1.7V49.55Z"/><path class="cls-4" d="M179.28,53.89v1.43H171.9V53.89Z"/><path class="cls-4" d="M185.64,56.93a15,15,0,0,0,2.24-2.53,4.58,4.58,0,0,0,.92-2.6,2.83,2.83,0,0,0-.59-1.89,2.3,2.3,0,0,0-1.87-.69,2.47,2.47,0,0,0-2,.78,3.31,3.31,0,0,0-.75,2.1H182a4.44,4.44,0,0,1,1.26-3.2,4.75,4.75,0,0,1,6.07-.07,3.77,3.77,0,0,1,1.12,2.9,5.49,5.49,0,0,1-.91,3,13.52,13.52,0,0,1-2.08,2.56c-.78.73-1.77,1.58-3,2.55h6.36v1.41H182V60Q184.3,58.14,185.64,56.93Z"/><path class="cls-4" d="M196.26,56.93a14.6,14.6,0,0,0,2.25-2.53,4.56,4.56,0,0,0,.91-2.6,2.83,2.83,0,0,0-.58-1.89,2.32,2.32,0,0,0-1.87-.69A2.47,2.47,0,0,0,195,50a3.26,3.26,0,0,0-.75,2.1h-1.63a4.44,4.44,0,0,1,1.26-3.2,4.75,4.75,0,0,1,6.07-.07,3.77,3.77,0,0,1,1.12,2.9,5.51,5.51,0,0,1-.92,3,13.14,13.14,0,0,1-2.08,2.56q-1.16,1.09-3,2.55h6.36v1.41h-8.89V60C194.15,58.77,195.38,57.74,196.26,56.93Z"/><rect class="cls-4" x="149.81" y="26.29" width="1" height="35.13"/></svg>