<svg id="Layer_1" data-name="Layer 1" xmlns="http://www.w3.org/2000/svg" viewBox="0 0 251.47 77.07"><defs><style>.cls-1{fill:#1c816e;}.cls-2{fill:#5bb9a4;}.cls-3{fill:#2b3a3b;}.cls-4{fill:#1a1818;}</style></defs><path class="cls-1" d="M13.25,21.11a8.8,8.8,0,1,0-8.9,15.18l13.74,8.06L27,29.16Zm4.2,20.73L5.28,34.71a7,7,0,1,1,7.05-12l12.16,7.14-.83,1.4Z"/><path class="cls-1" d="M26.92,68.33H27a8.75,8.75,0,0,0,5.15-1.67l.39-.3a8.77,8.77,0,0,0,3.27-6.83V44.35H18.19V59.53a8.54,8.54,0,0,0,.79,3.6,8.62,8.62,0,0,0,7.9,5.2S26.9,68.33,26.92,68.33Z"/><path class="cls-2" d="M26.6,43.28a1,1,0,0,1-.07-.16c0-.1-.11-.25-.18-.45A13.17,13.17,0,0,1,25.86,41a11.52,11.52,0,0,1,.24-6.18,10.59,10.59,0,0,1,2.07-3.59,14,14,0,0,1,3.5-2.81,11.15,11.15,0,0,1,4.56-1.52,19.81,19.81,0,0,1,4.83.3,14.67,14.67,0,0,0,4.57.13,10.85,10.85,0,0,0,4.09-1.63,13.27,13.27,0,0,0,5-6.05,15.48,15.48,0,0,0,1.1-5.56c0-.69,0-1.23-.06-1.6s0-.57,0-.57,0,.2.07.57.09.91.12,1.6A15.62,15.62,0,0,1,55,19.74a13.83,13.83,0,0,1-1.86,3.38,13.47,13.47,0,0,1-3.11,3,11.41,11.41,0,0,1-4.26,1.93,15.6,15.6,0,0,1-4.82.09,19.07,19.07,0,0,0-4.58-.08,9.73,9.73,0,0,0-4,1.52,12,12,0,0,0-3,2.67,8.9,8.9,0,0,0-1.58,3.09,9.66,9.66,0,0,0,.08,5.14,11.15,11.15,0,0,0,.49,1.38c.06.14.12.25.15.33l.05.1Z"/><path class="cls-2" d="M32.7,28a27.4,27.4,0,0,0,.43-3.15c.06-.65,0-1.36.07-2.1a19.53,19.53,0,0,0,0-2c1.6-.54,7.74-3.14,3.54-10.24C31.9,2.35,27.65,2,27.65,2s-4.39,1.72-2.82,9.74,5.46,8.56,5.46,8.56,1.64-2.77-.81-12.14c-.38-1.46-.14-1.81.06-1.89,0,.05,0,.08,0,.13a18.35,18.35,0,0,1,.74,1.92c.2.71.4,1.46.6,2.23s.36,1.33.55,2l.45,2.65c.09.92.32,1.82.34,2.73s.06,1.66.09,2.45a14.28,14.28,0,0,1-.05,2.28c0,.73-.08,1.41-.15,2-.2,1.24-.34,2.29-.54,3a10.74,10.74,0,0,1-.3,1.11l1.13.33S32.56,28.73,32.7,28Z"/><path class="cls-2" d="M48.45,26.66a13.68,13.68,0,0,0,.64-1.28c.12-.27.22-.57.34-.89s.19-.56.27-.86c.76,0,3.76-.23,3-3.87-.88-4.16-2.64-4.93-2.64-4.93s-2.13.1-2.62,3.76S48.53,23,48.53,23s1.1-.94,1.41-5.31c.05-.68.2-.79.3-.8s0,0,0,.06a7.09,7.09,0,0,1,0,.94c0,.32,0,.67-.06,1s-.05.86-.08,1.29l-.13.69c-.12.45-.15.93-.29,1.38s-.21.72-.31,1.06a7,7,0,0,1-.36,1c-.12.3-.23.59-.36.85A11,11,0,0,1,48,26.39c-.16.27-.28.43-.28.43l.43.31A4.25,4.25,0,0,0,48.45,26.66Z"/><path class="cls-2" d="M55.79,15.58c0-.18,0-.36,0-.55s0-.82,0-1.13l-.09-1c-.06-.29-.11-.58-.17-.85s-.11-.55-.17-.8-.15-.48-.21-.7c0,0,0,0,0,0s-.16.14-.06.66c.66,3.35,0,4.29,0,4.29s-1.36-.27-1.73-3.13S54.54,9,54.54,9s1.49.22,3,3.17c1.32,2.6-.89,3.37-1.47,3.53Z"/><path class="cls-1" d="M63.32,38.35a4.78,4.78,0,0,1-2,1.88,7.06,7.06,0,0,1-3.32.71H55.6v5.8H51.66V30.59H58a7.19,7.19,0,0,1,3.27.67,4.48,4.48,0,0,1,2,1.84A5.29,5.29,0,0,1,64,35.79,5.18,5.18,0,0,1,63.32,38.35Zm-3.91-1.07A2,2,0,0,0,60,35.79a2,2,0,0,0-.56-1.5,2.33,2.33,0,0,0-1.68-.53H55.6v4.05h2.13A2.29,2.29,0,0,0,59.41,37.28Z"/><path class="cls-1" d="M81.45,30.59V46.74H77.51V40.09H71.4v6.65H67.46V30.59H71.4v6.32h6.11V30.59Z"/><path class="cls-1" d="M95.78,43.88h-6l-1,2.86H84.67l5.84-16.15h4.55l5.85,16.15H96.74Zm-1-3-2-5.91-2,5.91Z"/><path class="cls-1" d="M112.36,46.74,109,40.64h-.94v6.1h-3.93V30.59h6.6a7.19,7.19,0,0,1,3.25.67,4.49,4.49,0,0,1,2,1.83,5,5,0,0,1,.67,2.58,4.79,4.79,0,0,1-.91,2.88,4.87,4.87,0,0,1-2.68,1.79l3.73,6.4Zm-4.3-8.88h2.44a2.24,2.24,0,0,0,1.62-.53,2,2,0,0,0,.54-1.5,2,2,0,0,0-.54-1.45,2.24,2.24,0,0,0-1.62-.52h-2.44Z"/><path class="cls-1" d="M138.86,30.59V46.74h-3.94V37.05l-3.61,9.69h-3.17L124.5,37v9.71h-3.93V30.59h4.65l4.53,11.18,4.48-11.18Z"/><path class="cls-1" d="M153.18,43.88h-6l-1,2.86h-4.11l5.84-16.15h4.55l5.84,16.15h-4.16Zm-1-3-2-5.91-2,5.91Z"/><path class="cls-3" d="M60.7,61.22a3.77,3.77,0,0,1-1.58,1.5,5.59,5.59,0,0,1-2.65.57H54.52v4.63H51.38V55h5.09a5.86,5.86,0,0,1,2.61.53A3.75,3.75,0,0,1,60.68,57a4.23,4.23,0,0,1,.53,2.15A4.18,4.18,0,0,1,60.7,61.22Zm-3.13-.85a1.84,1.84,0,0,0,0-2.39,1.87,1.87,0,0,0-1.34-.43H54.52v3.24h1.71A1.87,1.87,0,0,0,57.57,60.37Z"/><path class="cls-3" d="M72.72,61.22a3.77,3.77,0,0,1-1.58,1.5,5.56,5.56,0,0,1-2.65.57H66.54v4.63H63.4V55h5.09a5.86,5.86,0,0,1,2.61.53A3.64,3.64,0,0,1,72.7,57a4.24,4.24,0,0,1,.54,2.15A4.09,4.09,0,0,1,72.72,61.22Zm-3.12-.85a1.84,1.84,0,0,0,0-2.39,1.9,1.9,0,0,0-1.35-.43H66.54v3.24h1.71A1.9,1.9,0,0,0,69.6,60.37Z"/><path class="cls-3" d="M85,62.42A3.38,3.38,0,0,1,84.59,67a4.76,4.76,0,0,1-3.15.94h-6V55h5.81a4.79,4.79,0,0,1,3.08.9,3.27,3.27,0,0,1,.51,4.34,3.15,3.15,0,0,1-1.59,1.05A3,3,0,0,1,85,62.42Zm-6.47-2.18h2.06a1.79,1.79,0,0,0,1.18-.34,1.22,1.22,0,0,0,.42-1,1.24,1.24,0,0,0-.42-1,1.73,1.73,0,0,0-1.18-.35H78.57ZM82.11,65a1.27,1.27,0,0,0,.43-1,1.35,1.35,0,0,0-.45-1.07,1.87,1.87,0,0,0-1.24-.38H78.57v2.85h2.32A1.87,1.87,0,0,0,82.11,65Z"/><path class="cls-3" d="M88.39,58a5.92,5.92,0,0,1,2.3-2.33,6.7,6.7,0,0,1,3.36-.84A6.47,6.47,0,0,1,98,56.08a5.83,5.83,0,0,1,2.19,3.31H96.72a2.81,2.81,0,0,0-1.1-1.23A3.09,3.09,0,0,0,94,57.74a3,3,0,0,0-2.35,1,4.52,4.52,0,0,0,0,5.41,3.24,3.24,0,0,0,4,.58,2.81,2.81,0,0,0,1.1-1.23h3.45A5.74,5.74,0,0,1,98,66.81,6.4,6.4,0,0,1,94.05,68a6.7,6.7,0,0,1-3.36-.84,5.92,5.92,0,0,1-2.3-2.33,6.88,6.88,0,0,1-.83-3.4A7,7,0,0,1,88.39,58Z"/><path class="cls-3" d="M110.56,60.17v2.61h-8.09V60.17Z"/><path class="cls-3" d="M114,65c1.2-1,2.15-1.81,2.84-2.45a11.51,11.51,0,0,0,1.75-2,3.62,3.62,0,0,0,.72-2,1.8,1.8,0,0,0-.35-1.18,1.46,1.46,0,0,0-2.14.1,2.44,2.44,0,0,0-.4,1.48h-3a5.2,5.2,0,0,1,.67-2.61,4,4,0,0,1,1.67-1.55,5.35,5.35,0,0,1,2.31-.49,4.44,4.44,0,0,1,3.3,1.12,4,4,0,0,1,1.11,2.92,5.68,5.68,0,0,1-1.34,3.65,19.28,19.28,0,0,1-3.42,3.29h5v2.55h-9.23V65.41Z"/><path class="cls-3" d="M125.83,56.05a5.19,5.19,0,0,1,7.89,0,8.86,8.86,0,0,1,1.22,5,9,9,0,0,1-1.22,5,5.19,5.19,0,0,1-7.89,0,8.88,8.88,0,0,1-1.22-5A8.78,8.78,0,0,1,125.83,56.05Zm5.62,2.12a1.9,1.9,0,0,0-3.35,0,7.94,7.94,0,0,0-.4,2.86,12,12,0,0,0,.14,2.07,2.65,2.65,0,0,0,.6,1.32,2,2,0,0,0,2.67,0,2.56,2.56,0,0,0,.59-1.32,11.87,11.87,0,0,0,.15-2.07A7.94,7.94,0,0,0,131.45,58.17Z"/><path class="cls-3" d="M137.61,65c1.2-1,2.14-1.81,2.84-2.45a12,12,0,0,0,1.75-2,3.62,3.62,0,0,0,.72-2,1.8,1.8,0,0,0-.35-1.18,1.46,1.46,0,0,0-2.14.1,2.37,2.37,0,0,0-.4,1.48h-3a5.2,5.2,0,0,1,.67-2.61,4,4,0,0,1,1.67-1.55,5.31,5.31,0,0,1,2.31-.49,4.44,4.44,0,0,1,3.3,1.12,4,4,0,0,1,1.11,2.92,5.68,5.68,0,0,1-1.34,3.65,19.28,19.28,0,0,1-3.42,3.29h5v2.55H137V65.41Z"/><path class="cls-3" d="M154.32,57.1a1.54,1.54,0,0,0-1-.34,1.58,1.58,0,0,0-1.51.91,7.14,7.14,0,0,0-.48,2.88,2.77,2.77,0,0,1,1.17-1,3.9,3.9,0,0,1,1.68-.37,3.83,3.83,0,0,1,2.9,1.14,4.4,4.4,0,0,1,1.09,3.18,5,5,0,0,1-.54,2.36A3.88,3.88,0,0,1,156,67.43a5,5,0,0,1-2.45.57c-1.89,0-3.2-.59-3.94-1.78a9.76,9.76,0,0,1-1.1-5.1,9.22,9.22,0,0,1,1.17-5.19,4.18,4.18,0,0,1,3.74-1.7,4.6,4.6,0,0,1,2.32.54,3.73,3.73,0,0,1,1.44,1.43,4.83,4.83,0,0,1,.58,1.92h-2.93A1.89,1.89,0,0,0,154.32,57.1Zm-2.25,5a1.72,1.72,0,0,0-.53,1.34,1.89,1.89,0,0,0,.49,1.38,1.86,1.86,0,0,0,1.39.49,1.72,1.72,0,0,0,1.28-.48,1.86,1.86,0,0,0,.46-1.34,1.92,1.92,0,0,0-.46-1.36,1.69,1.69,0,0,0-1.32-.49A1.89,1.89,0,0,0,152.07,62.12Z"/><path class="cls-4" d="M173.31,43.3A6.07,6.07,0,0,1,171,41a7.11,7.11,0,0,1,0-6.78,6.14,6.14,0,0,1,2.34-2.35,6.47,6.47,0,0,1,3.27-.84,6.55,6.55,0,0,1,3.29.84,6.16,6.16,0,0,1,2.33,2.34,7.22,7.22,0,0,1,0,6.8,6.16,6.16,0,0,1-2.33,2.34,6.55,6.55,0,0,1-3.29.84A6.47,6.47,0,0,1,173.31,43.3Zm5.7-1.25a4.32,4.32,0,0,0,1.7-1.79,6.19,6.19,0,0,0,0-5.4A4.49,4.49,0,0,0,179,33.07a5,5,0,0,0-4.88,0,4.42,4.42,0,0,0-1.69,1.79,6.19,6.19,0,0,0,0,5.4,4.32,4.32,0,0,0,1.7,1.79,5,5,0,0,0,4.86,0Z"/><path class="cls-4" d="M185.27,36.19A4.43,4.43,0,0,1,187,34.37a5,5,0,0,1,2.56-.65,5,5,0,0,1,3.08.9,4.31,4.31,0,0,1,1.6,2.52h-1.81a2.63,2.63,0,0,0-1-1.46,3.1,3.1,0,0,0-1.86-.54,3,3,0,0,0-2.33,1,4.05,4.05,0,0,0-.88,2.8,4.14,4.14,0,0,0,.88,2.83,3,3,0,0,0,2.33,1,3.18,3.18,0,0,0,1.85-.52,2.69,2.69,0,0,0,1-1.48h1.81a4.44,4.44,0,0,1-1.63,2.49,4.88,4.88,0,0,1-3.05.93,5,5,0,0,1-2.56-.65,4.45,4.45,0,0,1-1.74-1.83,5.81,5.81,0,0,1-.63-2.77A5.69,5.69,0,0,1,185.27,36.19Z"/><path class="cls-4" d="M198.54,35.27v6a1.45,1.45,0,0,0,.31,1,1.56,1.56,0,0,0,1.09.3h1.24V44h-1.52a3,3,0,0,1-2.1-.64,2.77,2.77,0,0,1-.71-2.13v-6h-1.31V33.88h1.31V31.33h1.69v2.55h2.64v1.39Z"/><path class="cls-4" d="M205.05,43.53a4.58,4.58,0,0,1-1.81-1.84,5.58,5.58,0,0,1-.66-2.76,5.46,5.46,0,0,1,.68-2.74,4.56,4.56,0,0,1,1.84-1.83,5.62,5.62,0,0,1,5.21,0,4.6,4.6,0,0,1,1.84,1.82,5.44,5.44,0,0,1,.67,2.75,5.39,5.39,0,0,1-.69,2.76,4.75,4.75,0,0,1-1.88,1.84,5.36,5.36,0,0,1-2.62.65A5.2,5.2,0,0,1,205.05,43.53Zm4.28-1.25A3.3,3.3,0,0,0,210.62,41a4.7,4.7,0,0,0,0-4.14,3.18,3.18,0,0,0-1.25-1.27,3.69,3.69,0,0,0-3.38,0,3,3,0,0,0-1.22,1.27,4.88,4.88,0,0,0,0,4.16A3,3,0,0,0,206,42.29a3.46,3.46,0,0,0,1.66.41A3.6,3.6,0,0,0,209.33,42.28Z"/><path class="cls-4" d="M218.24,34.29a4.48,4.48,0,0,1,2.27-.57,4.67,4.67,0,0,1,2.46.65,4.51,4.51,0,0,1,1.72,1.82,5.66,5.66,0,0,1,.63,2.72,5.8,5.8,0,0,1-.63,2.74A4.64,4.64,0,0,1,223,43.51a4.87,4.87,0,0,1-4.75.1,4,4,0,0,1-1.49-1.46V44H215V30.34h1.68v5.43A4,4,0,0,1,218.24,34.29Zm4.9,2.63a3.26,3.26,0,0,0-1.25-1.3,3.5,3.5,0,0,0-1.73-.44,3.41,3.41,0,0,0-1.71.45,3.29,3.29,0,0,0-1.25,1.31,4.41,4.41,0,0,0,0,4,3.29,3.29,0,0,0,1.25,1.31,3.51,3.51,0,0,0,3.44,0,3.29,3.29,0,0,0,1.25-1.31,4.22,4.22,0,0,0,.46-2A4.06,4.06,0,0,0,223.14,36.92Z"/><path class="cls-4" d="M236.72,39.58h-8.09a3.17,3.17,0,0,0,3.29,3.18,3.12,3.12,0,0,0,1.82-.51,2.67,2.67,0,0,0,1-1.36h1.81A4.38,4.38,0,0,1,235,43.27a5,5,0,0,1-3,.91,5.15,5.15,0,0,1-2.58-.65,4.6,4.6,0,0,1-1.79-1.84,5.68,5.68,0,0,1-.64-2.76,5.75,5.75,0,0,1,.63-2.75,4.29,4.29,0,0,1,1.76-1.82,5.22,5.22,0,0,1,2.62-.64,5.08,5.08,0,0,1,2.55.63,4.31,4.31,0,0,1,1.71,1.73,5.08,5.08,0,0,1,.6,2.48A9.26,9.26,0,0,1,236.72,39.58Zm-2.1-3a2.76,2.76,0,0,0-1.16-1.06,3.63,3.63,0,0,0-1.62-.36,3.12,3.12,0,0,0-2.17.81,3.3,3.3,0,0,0-1,2.26H235A3.11,3.11,0,0,0,234.62,36.56Z"/><path class="cls-4" d="M241.94,34.18a3.94,3.94,0,0,1,2-.48v1.74h-.44c-1.89,0-2.83,1-2.83,3.07V44H239V33.88h1.68v1.65A3.22,3.22,0,0,1,241.94,34.18Z"/><path class="cls-4" d="M173.94,63.57A15.35,15.35,0,0,0,176.18,61a4.58,4.58,0,0,0,.92-2.6,2.88,2.88,0,0,0-.59-1.9,2.3,2.3,0,0,0-1.87-.69,2.44,2.44,0,0,0-1.95.79,3.29,3.29,0,0,0-.75,2.1h-1.63a4.44,4.44,0,0,1,1.26-3.2,4.77,4.77,0,0,1,6.07-.08,3.8,3.8,0,0,1,1.12,2.91,5.53,5.53,0,0,1-.92,3,13.1,13.1,0,0,1-2.07,2.55c-.78.73-1.77,1.59-3,2.56h6.36v1.41h-8.89V66.66Q172.6,64.79,173.94,63.57Z"/><path class="cls-4" d="M182.36,55.35a4.74,4.74,0,0,1,3.07-1,4.86,4.86,0,0,1,2.17.45,3.19,3.19,0,0,1,1.86,3,3.16,3.16,0,0,1-.65,2,3,3,0,0,1-1.71,1.07V61a3.43,3.43,0,0,1,1.9,1.17,3.48,3.48,0,0,1,.7,2.27,3.74,3.74,0,0,1-.48,1.89,3.27,3.27,0,0,1-1.44,1.33,5.12,5.12,0,0,1-2.31.48,5,5,0,0,1-3.22-1,4,4,0,0,1-1.4-2.91h1.62a2.8,2.8,0,0,0,.91,1.81,3,3,0,0,0,2.07.7,2.67,2.67,0,0,0,2-.67,2.36,2.36,0,0,0,.67-1.75,2.19,2.19,0,0,0-.92-2,5.11,5.11,0,0,0-2.79-.61H184V60.25h.45a5,5,0,0,0,2.57-.56,1.86,1.86,0,0,0,.86-1.69,2.07,2.07,0,0,0-.63-1.58,2.6,2.6,0,0,0-1.82-.59,2.79,2.79,0,0,0-1.85.59A2.39,2.39,0,0,0,182.7,58h-1.65A3.66,3.66,0,0,1,182.36,55.35Z"/><path class="cls-4" d="M199.28,60.53V62H191.9V60.53Z"/><path class="cls-4" d="M205.63,63.57A15,15,0,0,0,207.88,61a4.56,4.56,0,0,0,.91-2.6,2.88,2.88,0,0,0-.58-1.9,2.32,2.32,0,0,0-1.87-.69,2.44,2.44,0,0,0-2,.79,3.18,3.18,0,0,0-.75,2.1H202a4.44,4.44,0,0,1,1.26-3.2,4.77,4.77,0,0,1,6.07-.08,3.8,3.8,0,0,1,1.12,2.91,5.53,5.53,0,0,1-.92,3,12.78,12.78,0,0,1-2.08,2.55c-.77.73-1.76,1.59-3,2.56h6.36v1.41H202V66.66C203.52,65.41,204.75,64.38,205.63,63.57Z"/><path class="cls-4" d="M212.38,65V63.76l6.49-9h2v8.8h1.85V65h-1.85v3h-1.66V65Zm6.91-8.5-5,7h5Z"/><rect class="cls-4" x="163.84" y="30.6" width="1" height="37.46"/></svg>