<?xml version="1.0" encoding="UTF-8"?>
<svg id="Layer_1" data-name="Layer 1" xmlns="http://www.w3.org/2000/svg" viewBox="0 0 42.1 36.79">
  <defs>
    <style>
      .cls-1 {
        fill: #1c816e;
      }
    </style>
  </defs>
  <path class="cls-1" d="M40.66,35.31c-.69-1.43-1.34-2.76-1.98-4.09-1.28-2.64-2.55-5.29-3.84-7.92-.1-.19-.31-.38-.52-.46-1.91-.71-3.82-1.39-5.74-2.08-.17-.06-.33-.13-.54-.2.11-.3.21-.59.33-.92.93.33,1.81.65,2.69.96,1.3.47,2.61.92,3.9,1.42.24.09.5.32.61.55,2.17,4.45,4.32,8.92,6.46,13.38.1.21.04.49.06.74-.25,0-.52.09-.73,0-3.75-1.49-7.5-3-11.24-4.52-.29-.12-.53-.12-.81.03-2.96,1.48-5.92,2.94-8.88,4.43-.43.21-.77.22-1.2,0-2.86-1.49-5.73-2.96-8.59-4.44-.26-.13-.47-.14-.74-.04-2.99,1.08-5.99,2.15-8.98,3.23-.09.03-.18.07-.27.09-.45.1-.74-.2-.6-.65.04-.13.11-.25.17-.38,1.68-3.63,3.36-7.26,5.05-10.89.09-.2.25-.42.44-.52,2.02-1.09,4.05-2.16,6.08-3.24.05-.03.1-.03.18-.06.15.27.29.53.45.83-.2.11-.38.2-.56.3-1.8.96-3.59,1.91-5.38,2.88-.16.09-.33.22-.4.38-1.53,3.24-3.04,6.49-4.56,9.74-.03.06-.04.12-.09.23.17-.05.28-.07.39-.11,2.56-.92,5.13-1.85,7.7-2.76.28-.1.42-.24.5-.53.51-1.75,1.04-3.5,1.57-5.25.03-.1.07-.21.12-.35.3.08.58.17.91.26-.6,1.94-1.19,3.85-1.79,5.79,2.78,1.43,5.54,2.86,8.38,4.32v-3.17h1v3.24c2.96-1.46,5.85-2.88,8.78-4.32-.51-2.03-1.01-4.05-1.52-6.11.33-.09.64-.18.99-.27.29,1.12.57,2.22.85,3.32.22.87.43,1.75.68,2.61.05.17.21.36.37.43,3.32,1.34,6.65,2.67,9.98,4,.09.03.17.06.36.13Z"/>
  <path class="cls-1" d="M19.7,28.37c-.91-1.17-1.8-2.29-2.65-3.43-2.26-3.02-4.41-6.11-6.08-9.51-.66-1.33-1.25-2.69-1.46-4.18-.3-2.11.19-4.08,1.21-5.92C12.79,1.6,16.88-.49,21.03.1c4.52.64,7.87,3.82,8.8,8.19.44,2.06.04,3.98-.76,5.87-.94,2.21-2.11,4.31-3.48,6.27-1.76,2.5-3.61,4.94-5.43,7.4-.12.17-.27.31-.46.54ZM19.75,26.8c1.37-1.87,2.7-3.64,3.98-5.45,1.62-2.3,3.12-4.67,4.28-7.25.74-1.65,1.23-3.34.93-5.19-.62-3.78-3.45-6.84-7.15-7.68-3.69-.84-7.53.63-9.7,3.77-1.28,1.85-1.9,3.9-1.59,6.16.18,1.3.7,2.5,1.28,3.67,1.61,3.28,3.69,6.27,5.86,9.2.67.9,1.36,1.78,2.11,2.76Z"/>
  <path class="cls-1" d="M25.23,10.22c-.03,3.09-2.49,5.5-5.6,5.47-3.03-.03-5.45-2.51-5.43-5.56.03-3.07,2.51-5.52,5.55-5.48,3.08.04,5.5,2.51,5.47,5.57ZM24.23,10.19c0-2.5-2.01-4.53-4.5-4.53-2.49,0-4.51,2.01-4.52,4.51-.01,2.47,2.04,4.53,4.51,4.53,2.5,0,4.51-2.01,4.52-4.51Z"/>
</svg>